<svg width="50px" height="50px" viewBox="0 0 50 50" version="1.1" xmlns="http://www.w3.org/2000/svg" xmlns:xlink="http://www.w3.org/1999/xlink">
  <g id="codepen" fill="#000000" class="icon-color">
      <path d="M49.98125,17.103125 C49.9765625,17.0703125 49.96875,17.040625 49.9640625,17.009375 C49.953125,16.9484375 49.9421875,16.8875 49.9265625,16.8296875 C49.9171875,16.79375 49.903125,16.759375 49.8921875,16.725 C49.875,16.671875 49.8578125,16.6203125 49.8375,16.56875 C49.8234375,16.5328125 49.80625,16.496875 49.7890625,16.4640625 C49.7671875,16.4140625 49.74375,16.3671875 49.715625,16.321875 C49.696875,16.2875 49.675,16.2546875 49.6546875,16.221875 C49.6265625,16.1765625 49.596875,16.1328125 49.5640625,16.090625 C49.540625,16.059375 49.515625,16.028125 49.490625,15.9984375 C49.45625,15.9578125 49.4203125,15.91875 49.3828125,15.88125 C49.3546875,15.853125 49.328125,15.8234375 49.2984375,15.7984375 C49.2578125,15.7625 49.2171875,15.728125 49.1765625,15.6953125 C49.14375,15.6703125 49.1125,15.6453125 49.0796875,15.621875 C49.0671875,15.6140625 49.05625,15.603125 49.04375,15.5953125 L26.1921875,0.3609375 C25.4703125,-0.1203125 24.53125,-0.1203125 23.8078125,0.3609375 L0.9578125,15.5953125 C0.9453125,15.603125 0.934375,15.6140625 0.921875,15.621875 C0.8875,15.6453125 0.85625,15.6703125 0.825,15.6953125 C0.7828125,15.728125 0.7421875,15.7625 0.703125,15.7984375 C0.6734375,15.8234375 0.6453125,15.853125 0.6171875,15.88125 C0.5796875,15.91875 0.54375,15.9578125 0.5109375,15.9984375 C0.484375,16.028125 0.459375,16.059375 0.4359375,16.090625 C0.4046875,16.1328125 0.375,16.1765625 0.346875,16.221875 C0.325,16.2546875 0.3046875,16.2875 0.284375,16.321875 C0.2578125,16.3671875 0.234375,16.4140625 0.2109375,16.4640625 C0.1953125,16.496875 0.178125,16.5328125 0.1640625,16.56875 C0.1421875,16.6203125 0.125,16.671875 0.1078125,16.725 C0.096875,16.759375 0.084375,16.79375 0.075,16.8296875 C0.059375,16.8875 0.0484375,16.9484375 0.0375,17.009375 C0.03125,17.040625 0.0234375,17.0703125 0.0203125,17.103125 C0.0078125,17.19375 0,17.2875 0,17.3828125 L0,32.6171875 C0,32.7109375 0.0078125,32.8046875 0.0203125,32.8984375 C0.0234375,32.928125 0.03125,32.959375 0.0375,32.990625 C0.0484375,33.0515625 0.059375,33.1109375 0.075,33.1703125 C0.084375,33.20625 0.096875,33.240625 0.1078125,33.275 C0.125,33.3265625 0.1421875,33.3796875 0.1640625,33.4328125 C0.178125,33.4671875 0.1953125,33.5015625 0.2109375,33.5359375 C0.234375,33.584375 0.2578125,33.63125 0.284375,33.6796875 C0.3046875,33.7125 0.325,33.7453125 0.346875,33.778125 C0.375,33.8234375 0.4046875,33.865625 0.4359375,33.9078125 C0.459375,33.940625 0.484375,33.971875 0.5109375,34.0015625 C0.54375,34.040625 0.5796875,34.08125 0.6171875,34.1171875 C0.6453125,34.146875 0.6734375,34.175 0.703125,34.2015625 C0.7421875,34.2375 0.7828125,34.271875 0.825,34.3046875 C0.85625,34.3296875 0.8875,34.3546875 0.921875,34.378125 C0.934375,34.3859375 0.9453125,34.396875 0.9578125,34.4046875 L23.8078125,49.6390625 C24.16875,49.8796875 24.584375,50 25,50 C25.415625,50 25.83125,49.8796875 26.1921875,49.6390625 L49.04375,34.4046875 C49.05625,34.396875 49.0671875,34.3859375 49.0796875,34.378125 C49.1125,34.3546875 49.14375,34.3296875 49.1765625,34.3046875 C49.2171875,34.271875 49.2578125,34.2375 49.2984375,34.2015625 C49.328125,34.175 49.3546875,34.146875 49.3828125,34.1171875 C49.4203125,34.08125 49.45625,34.040625 49.490625,34.0015625 C49.515625,33.971875 49.540625,33.940625 49.5640625,33.9078125 C49.596875,33.865625 49.6265625,33.8234375 49.6546875,33.778125 C49.675,33.7453125 49.696875,33.7125 49.715625,33.6796875 C49.74375,33.63125 49.7671875,33.584375 49.7890625,33.5359375 C49.80625,33.5015625 49.8234375,33.4671875 49.8375,33.4328125 C49.8578125,33.3796875 49.875,33.3265625 49.8921875,33.275 C49.903125,33.240625 49.9171875,33.20625 49.9265625,33.1703125 C49.9421875,33.1109375 49.953125,33.0515625 49.9640625,32.990625 C49.96875,32.959375 49.9765625,32.928125 49.98125,32.8984375 C49.99375,32.8046875 50,32.7109375 50,32.6171875 L50,17.3828125 C50,17.2875 49.99375,17.19375 49.98125,17.103125 L49.98125,17.103125 L49.98125,17.103125 Z M27.1484375,6.1640625 L43.9828125,17.3859375 L36.4640625,22.415625 L27.1484375,16.184375 L27.1484375,6.1640625 L27.1484375,6.1640625 Z M22.8515625,6.1640625 L22.8515625,16.184375 L13.5375,22.415625 L6.0171875,17.3859375 L22.8515625,6.1640625 L22.8515625,6.1640625 Z M4.296875,21.4046875 L9.6734375,25 L4.296875,28.5953125 L4.296875,21.4046875 L4.296875,21.4046875 Z M22.8515625,43.8359375 L6.0171875,32.6140625 L13.5375,27.5859375 L22.8515625,33.815625 L22.8515625,43.8359375 L22.8515625,43.8359375 Z M25,30.0828125 L17.4015625,25 L25,19.9171875 L32.6,25 L25,30.0828125 L25,30.0828125 Z M27.1484375,43.8359375 L27.1484375,33.815625 L36.4640625,27.5859375 L43.9828125,32.6140625 L27.1484375,43.8359375 L27.1484375,43.8359375 Z M45.703125,28.5953125 L40.328125,25 L45.703125,21.4046875 L45.703125,28.5953125 L45.703125,28.5953125 Z"></path>
  </g>
</svg>
