<svg width="50px" height="50px" viewBox="0 0 50 50" version="1.1" xmlns="http://www.w3.org/2000/svg" xmlns:xlink="http://www.w3.org/1999/xlink">
  <g id="github" fill="#000000" class="icon-color">
      <path d="M24.9984375,1 C11.19375,1 0,12.2365543 0,26.1006708 C0,37.1881991 7.1625,46.5956564 17.0984375,49.9150126 C18.3484375,50.1456106 18.8046875,49.3706758 18.8046875,48.7055496 C18.8046875,48.109446 18.7828125,46.5313399 18.7703125,44.4371336 C11.815625,45.9540606 10.3484375,41.0722852 10.3484375,41.0722852 C9.2125,38.1733389 7.5734375,37.4015415 7.5734375,37.4015415 C5.303125,35.8438285 7.7453125,35.8752024 7.7453125,35.8752024 C10.253125,36.0524648 11.5734375,38.4619786 11.5734375,38.4619786 C13.8046875,42.2974351 17.425,41.1899372 18.85,40.5467727 C19.0765625,38.9247433 19.7234375,37.8188141 20.4375,37.1913365 C14.8859375,36.5575842 9.05,34.4053362 9.05,24.787674 C9.05,22.0471658 10.0234375,19.8070709 11.6234375,18.0517025 C11.365625,17.4163815 10.5078125,14.8656852 11.8671875,11.4098526 C11.8671875,11.4098526 13.9671875,10.7353142 18.7421875,13.9825106 C20.7375,13.4256242 22.875,13.1479654 25.0015625,13.1369846 C27.125,13.1479654 29.2640625,13.4256242 31.2609375,13.9825106 C36.0328125,10.7353142 38.128125,11.4098526 38.128125,11.4098526 C39.4921875,14.8656852 38.634375,17.4163815 38.3765625,18.0517025 C39.9796875,19.8070709 40.946875,22.0471658 40.946875,24.787674 C40.946875,34.4288666 35.1015625,36.5513094 29.5328125,37.1725122 C30.4296875,37.947447 31.2296875,39.4784922 31.2296875,41.8205522 C31.2296875,45.1759884 31.1984375,47.8819853 31.1984375,48.7055496 C31.1984375,49.3769506 31.6484375,50.1581602 32.9171875,49.9118752 C42.84375,46.5862442 50,37.1850618 50,26.1006708 C50,12.2365543 38.80625,1 24.9984375,1"></path>
  </g>
</svg>
