<svg width="50px" height="50px" viewBox="0 0 50 50" version="1.1" xmlns="http://www.w3.org/2000/svg" xmlns:xlink="http://www.w3.org/1999/xlink">
  <g id="instagram" fill="#000000" class="icon-color">
      <path d="M25.0000496,0 C18.2104076,0 17.3590478,0.0287789203 14.692532,0.150444287 C12.0315735,0.271811941 10.2142343,0.694465119 8.62405005,1.31251724 C6.98007903,1.95131004 5.5858892,2.80614321 4.19596658,4.19596658 C2.80614321,5.5858892 1.95131004,6.98007903 1.31251724,8.62405005 C0.694465119,10.2142343 0.271811941,12.0315735 0.150444287,14.692532 C0.0287789203,17.3590478 0,18.2104076 0,25.0000496 C0,31.7895924 0.0287789203,32.6409522 0.150444287,35.307468 C0.271811941,37.9684265 0.694465119,39.7857657 1.31251724,41.37595 C1.95131004,43.019921 2.80614321,44.4141108 4.19596658,45.8040334 C5.5858892,47.1938568 6.98007903,48.04869 8.62405005,48.687582 C10.2142343,49.3055349 12.0315735,49.7281881 14.692532,49.8495557 C17.3590478,49.9712211 18.2104076,50 25.0000496,50 C31.7895924,50 32.6409522,49.9712211 35.307468,49.8495557 C37.9684265,49.7281881 39.7857657,49.3055349 41.37595,48.687582 C43.019921,48.04869 44.4141108,47.1938568 45.8040334,45.8040334 C47.1938568,44.4141108 48.04869,43.019921 48.687582,41.37595 C49.3055349,39.7857657 49.7281881,37.9684265 49.8495557,35.307468 C49.9712211,32.6409522 50,31.7895924 50,25.0000496 C50,18.2104076 49.9712211,17.3590478 49.8495557,14.692532 C49.7281881,12.0315735 49.3055349,10.2142343 48.687582,8.62405005 C48.04869,6.98007903 47.1938568,5.5858892 45.8040334,4.19596658 C44.4141108,2.80614321 43.019921,1.95131004 41.37595,1.31251724 C39.7857657,0.694465119 37.9684265,0.271811941 35.307468,0.150444287 C32.6409522,0.0287789203 31.7895924,0 25.0000496,0 Z M25.0000496,4.50449646 C31.6752706,4.50449646 32.4659962,4.53000054 35.1021453,4.65027658 C37.5396206,4.76142275 38.8633517,5.16869409 39.7442844,5.51106401 C40.91122,5.9645801 41.7440224,6.50631846 42.6188024,7.38119764 C43.4936815,8.25597758 44.0354199,9.08877999 44.488936,10.2557156 C44.8313059,11.1366483 45.2385772,12.4603794 45.3497234,14.8978547 C45.4699995,17.5340038 45.4955035,18.3247294 45.4955035,25.0000496 C45.4955035,31.6752706 45.4699995,32.4659962 45.3497234,35.1021453 C45.2385772,37.5396206 44.8313059,38.8633517 44.488936,39.7442844 C44.0354199,40.91122 43.4936815,41.7440224 42.6188024,42.6188024 C41.7440224,43.4936815 40.91122,44.0354199 39.7442844,44.488936 C38.8633517,44.8313059 37.5396206,45.2385772 35.1021453,45.3497234 C32.4663932,45.4699995 31.6757668,45.4955035 25.0000496,45.4955035 C18.3242332,45.4955035 17.5337061,45.4699995 14.8978547,45.3497234 C12.4603794,45.2385772 11.1366483,44.8313059 10.2557156,44.488936 C9.08877999,44.0354199 8.25597758,43.4936815 7.38119764,42.6188024 C6.5064177,41.7440224 5.9645801,40.91122 5.51106401,39.7442844 C5.16869409,38.8633517 4.76142275,37.5396206 4.65027658,35.1021453 C4.53000054,32.4659962 4.50449646,31.6752706 4.50449646,25.0000496 C4.50449646,18.3247294 4.53000054,17.5340038 4.65027658,14.8978547 C4.76142275,12.4603794 5.16869409,11.1366483 5.51106401,10.2557156 C5.9645801,9.08877999 6.50631846,8.25597758 7.38119764,7.38119764 C8.25597758,6.50631846 9.08877999,5.9645801 10.2557156,5.51106401 C11.1366483,5.16869409 12.4603794,4.76142275 14.8978547,4.65027658 C17.5340038,4.53000054 18.3247294,4.50449646 25.0000496,4.50449646 Z M25.0000496,12.1621702 C17.9098168,12.1621702 12.1621702,17.9098168 12.1621702,25.0000496 C12.1621702,32.0901832 17.9098168,37.8378298 25.0000496,37.8378298 C32.0901832,37.8378298 37.8378298,32.0901832 37.8378298,25.0000496 C37.8378298,17.9098168 32.0901832,12.1621702 25.0000496,12.1621702 Z M25.0000496,33.3333333 C20.3976056,33.3333333 16.6666667,29.6023944 16.6666667,25.0000496 C16.6666667,20.3976056 20.3976056,16.6666667 25.0000496,16.6666667 C29.6023944,16.6666667 33.3333333,20.3976056 33.3333333,25.0000496 C33.3333333,29.6023944 29.6023944,33.3333333 25.0000496,33.3333333 Z M41.345087,11.6549665 C41.345087,13.3118385 40.0019054,14.6549209 38.3450335,14.6549209 C36.6882608,14.6549209 35.3450791,13.3118385 35.3450791,11.6549665 C35.3450791,9.99809464 36.6882608,8.65491296 38.3450335,8.65491296 C40.0019054,8.65491296 41.345087,9.99809464 41.345087,11.6549665 Z"></path>
  </g>
</svg>
