<svg width="50px" height="50px" viewBox="0 0 50 50" version="1.1" xmlns="http://www.w3.org/2000/svg" xmlns:xlink="http://www.w3.org/1999/xlink">
  <g id="linkedin" fill="#000000" class="icon-color">
      <path d="M50,47.4615373 L38.949318,47.4615373 L38.949318,31.479989 C38.949318,27.2968406 37.2207197,24.4411213 33.4195673,24.4411213 C30.5121119,24.4411213 28.8952258,26.3682224 28.1426388,28.2254588 C27.8604186,28.8920844 27.9045155,29.8207026 27.9045155,30.7493208 L27.9045155,47.4615373 L16.9567262,47.4615373 C16.9567262,47.4615373 17.0978363,19.1517819 16.9567262,16.5784324 L27.9045155,16.5784324 L27.9045155,21.4252954 C28.55127,19.3060664 32.0496237,16.2815075 37.6322907,16.2815075 C44.5584431,16.2815075 50,20.7237375 50,30.2893782 L50,47.4615373 L50,47.4615373 Z M5.88546566,12.7154971 L5.81491063,12.7154971 C2.28715898,12.7154971 0,10.3546528 0,7.36211511 C0,4.31135689 2.35477422,2 5.9530809,2 C9.54844779,2 11.7591722,4.30553484 11.8297272,7.35338202 C11.8297272,10.3459197 9.54844779,12.7154971 5.88546566,12.7154971 L5.88546566,12.7154971 L5.88546566,12.7154971 Z M1.26117121,16.5784324 L11.0065851,16.5784324 L11.0065851,47.4615373 L1.26117121,47.4615373 L1.26117121,16.5784324 L1.26117121,16.5784324 Z"></path>
  </g>
</svg>