<svg width="50px" height="50px" viewBox="0 0 50 50" version="1.1" xmlns="http://www.w3.org/2000/svg" xmlns:xlink="http://www.w3.org/1999/xlink">
    <g id="tumblr" fill="#000000" class="icon-color">
        <path d="M37.1805909,39.9382684 C36.2562001,40.3816929 34.4883688,40.7674973 33.1701234,40.8006915 C29.190168,40.9077898 28.4177147,37.9888916 28.3856459,35.8729175 L28.3856459,20.3076525 L38.3690044,20.3076525 L38.3690044,12.736868 L28.4202055,12.736868 L28.4202055,0 L21.1399663,0 C21.0200975,0 20.8108719,0.105532528 20.7812939,0.373278258 C20.3553705,4.27140557 18.5420825,11.1131702 11,13.8488739 L11,20.3073393 L16.031376,20.3073393 L16.031376,36.6435867 C16.031376,42.237437 20.1336911,50.1843182 30.9632921,49.9967396 C34.6172667,49.9337959 38.6753704,48.3955888 39.5714286,47.0675074 L37.1805909,39.9382684"></path>
    </g>
</svg>